# xmcd
#
# Track frame offsets:
#	150
#	36648
#	76035
#	99619
#	130969
#	160589
#	192887
#	237422
#	273905
#
# Disc length: 4068 seconds
#
# Revision: 0
# Processed by: cddbd v1.5.2PL0 Copyright (c) Steve Scherf et al.
# Submitted via: EasyCDDAExtractor 9.0.0.1
#
DISCID=710fe209
DTITLE=Various Artist - Mozart: Piano Concertos 3 
DYEAR=1900
DGENRE=Concerto
TTITLE0=Neville Marriner, Alfred Brendel, Academy of St. Martin-in-the-Fields 
TTITLE0=/ Piano Concerto No. 5 in D major, K. 175 1. Allegro
TTITLE1=Neville Marriner, Alfred Brendel, Academy of St. Martin-in-the-Fields 
TTITLE1=/ " 2. Andante ma un poco adagio
TTITLE2=Neville Marriner, Alfred Brendel, Academy of St. Martin-in-the-Fields 
TTITLE2=/ " 3. Allegro
TTITLE3=Neville Marriner, Alfred Brendel, Academy of St. Martin-in-the-Fields 
TTITLE3=/ Piano Concerto No. 6 in B flat major, K. 238 1. Allegro aperto
TTITLE4=Neville Marriner, Alfred Brendel, Academy of St. Martin-in-the-Fields 
TTITLE4=/ " 2. (Andante un poco adagio)
TTITLE5=Neville Marriner, Alfred Brendel, Academy of St. Martin-in-the-Fields 
TTITLE5=/ " 3. Rondeau. Allegro
TTITLE6=Neville Marriner, Alfred Brendel, Imogen Cooper, Academy of St. Martin
TTITLE6=in-the-Fields - Concerto for 2 pianos and orchestra in E flat major ("C
TTITLE6=oncerto No. 10"), K. 365 (K. 316a) 1. Allegro
TTITLE7=Neville Marriner, Alfred Brendel, Imogen Cooper, Academy of St. Martin
TTITLE7=in-the-Fields - " 2. Andante
TTITLE8=Neville Marriner, Alfred Brendel, Imogen Cooper, Academy of St. Martin
TTITLE8=in-the-Fields - " 3. Rondeaux. Allegro
EXTD=
EXTT0=
EXTT1=
EXTT2=
EXTT3=
EXTT4=
EXTT5=
EXTT6=
EXTT7=
EXTT8=
PLAYORDER=
